<svg width="16" height="14" viewBox="0 0 16 14" fill="none" xmlns="http://www.w3.org/2000/svg">
<path d="M7.97591 11.7229L7.90333 11.798L7.82349 11.7229C4.37591 8.48317 2.09688 6.34092 2.09688 4.1686C2.09688 2.66526 3.18559 1.53776 4.6372 1.53776C5.75494 1.53776 6.84365 2.28943 7.22833 3.3117H8.57833C8.96301 2.28943 10.0517 1.53776 11.1695 1.53776C12.6211 1.53776 13.7098 2.66526 13.7098 4.1686C13.7098 6.34092 11.4307 8.48317 7.97591 11.7229ZM11.1695 0.0344238C9.90655 0.0344238 8.69446 0.643275 7.90333 1.59789C7.1122 0.643275 5.9001 0.0344238 4.6372 0.0344238C2.40172 0.0344238 0.645264 1.84594 0.645264 4.1686C0.645264 7.00238 3.11301 9.32504 6.85091 12.8353L7.90333 13.8275L8.95575 12.8353C12.6937 9.32504 15.1614 7.00238 15.1614 4.1686C15.1614 1.84594 13.4049 0.0344238 11.1695 0.0344238Z" fill="#DD2020"/>
</svg>
