<svg width="27" height="27" viewBox="0 0 27 27" fill="none" xmlns="http://www.w3.org/2000/svg">
<path d="M14.3412 2.29709C14.1064 2.10473 13.8082 1.9991 13.5 1.9991C13.1918 1.9991 12.8936 2.10473 12.6588 2.29709L2.53385 10.5861C2.39049 10.7035 2.27537 10.8496 2.19647 11.0142C2.11757 11.1788 2.07678 11.3579 2.07692 11.5392V24.4997C2.07692 24.6323 2.13163 24.7595 2.229 24.8533C2.32638 24.9471 2.45845 24.9998 2.59615 24.9998H7.78846C7.92617 24.9998 8.05824 24.9471 8.15561 24.8533C8.25299 24.7595 8.30769 24.6323 8.30769 24.4997V17.4989C8.30769 16.8358 8.58121 16.1998 9.06809 15.7309C9.55496 15.262 10.2153 14.9986 10.9038 14.9986H16.1003C16.4412 14.9986 16.7788 15.0633 17.0938 15.1889C17.4088 15.3146 17.695 15.4987 17.9361 15.7309C18.1771 15.9631 18.3684 16.2387 18.4988 16.5421C18.6293 16.8454 18.6965 17.1705 18.6965 17.4989V24.4997C18.6965 24.6323 18.7512 24.7595 18.8485 24.8533C18.9459 24.9471 19.078 24.9998 19.2157 24.9998H24.4038C24.5416 24.9998 24.6736 24.9471 24.771 24.8533C24.8684 24.7595 24.9231 24.6323 24.9231 24.4997V11.5382C24.9231 11.3571 24.8822 11.1781 24.8033 11.0137C24.7244 10.8493 24.6094 10.7034 24.4662 10.5861L14.3412 2.29709ZM11.314 0.77391C11.9243 0.274314 12.6991 0 13.5 0C14.3009 0 15.0757 0.274314 15.686 0.77391L25.811 9.06189C26.1836 9.367 26.483 9.74649 26.6883 10.1741C26.8936 10.6016 27 11.0671 27 11.5382V24.4997C27 25.1628 26.7265 25.7988 26.2396 26.2677C25.7527 26.7366 25.0924 27 24.4038 27H19.2157C18.5271 27 17.8668 26.7366 17.3799 26.2677C16.8931 25.7988 16.6195 25.1628 16.6195 24.4997V17.4989C16.6195 17.3663 16.5648 17.2391 16.4675 17.1453C16.3701 17.0515 16.238 16.9988 16.1003 16.9988H10.9038C10.7661 16.9988 10.6341 17.0515 10.5367 17.1453C10.4393 17.2391 10.3846 17.3663 10.3846 17.4989V24.4997C10.3846 25.1628 10.1111 25.7988 9.62422 26.2677C9.13735 26.7366 8.47701 27 7.78846 27H2.59615C1.90761 27 1.24727 26.7366 0.760396 26.2677C0.273523 25.7988 0 25.1628 0 24.4997V11.5382C2.73229e-05 11.0671 0.106378 10.6016 0.311688 10.1741C0.516998 9.74649 0.816359 9.367 1.18904 9.06189L11.314 0.77391Z" fill="url(#paint0_linear_74_1674)"/>
<defs>
<linearGradient id="paint0_linear_74_1674" x1="13.5" y1="0" x2="13.5" y2="27" gradientUnits="userSpaceOnUse">
<stop stop-color="#EDBE2A"/>
<stop offset="1" stop-color="#B4973F"/>
</linearGradient>
</defs>
</svg>
