<svg width="26" height="16" viewBox="0 0 26 16" fill="none" xmlns="http://www.w3.org/2000/svg">
<path d="M25.7031 7.92969C25.7031 8.10995 25.6167 8.28283 25.4629 8.4103C25.309 8.53777 25.1004 8.60938 24.8828 8.60938H0.820312C0.602752 8.60938 0.394102 8.53777 0.240264 8.4103C0.0864254 8.28283 0 8.10995 0 7.92969C0 7.74942 0.0864254 7.57654 0.240264 7.44908C0.394102 7.32161 0.602752 7.25 0.820312 7.25H24.8828C25.1004 7.25 25.309 7.32161 25.4629 7.44908C25.6167 7.57654 25.7031 7.74942 25.7031 7.92969ZM0.820312 1.35938H24.8828C25.1004 1.35938 25.309 1.28776 25.4629 1.1603C25.6167 1.03283 25.7031 0.859952 25.7031 0.679688C25.7031 0.499423 25.6167 0.326542 25.4629 0.199076C25.309 0.0716096 25.1004 0 24.8828 0H0.820312C0.602752 0 0.394102 0.0716096 0.240264 0.199076C0.0864254 0.326542 0 0.499423 0 0.679688C0 0.859952 0.0864254 1.03283 0.240264 1.1603C0.394102 1.28776 0.602752 1.35938 0.820312 1.35938ZM24.8828 14.5H0.820312C0.602752 14.5 0.394102 14.5716 0.240264 14.6991C0.0864254 14.8265 0 14.9994 0 15.1797C0 15.36 0.0864254 15.5328 0.240264 15.6603C0.394102 15.7878 0.602752 15.8594 0.820312 15.8594H24.8828C25.1004 15.8594 25.309 15.7878 25.4629 15.6603C25.6167 15.5328 25.7031 15.36 25.7031 15.1797C25.7031 14.9994 25.6167 14.8265 25.4629 14.6991C25.309 14.5716 25.1004 14.5 24.8828 14.5Z" fill="#827A7A"/>
</svg>
