<svg width="21" height="19" viewBox="0 0 21 19" fill="none" xmlns="http://www.w3.org/2000/svg">
<path fill-rule="evenodd" clip-rule="evenodd" d="M7.21892 4.76179V3.95825C7.21892 3.17089 7.56462 2.41578 8.17998 1.85903C8.79533 1.30228 9.62993 0.989502 10.5002 0.989502C11.3704 0.989502 12.205 1.30228 12.8204 1.85903C13.4357 2.41578 13.7814 3.17089 13.7814 3.95825V4.76179C14.9075 4.79267 15.597 4.90192 16.1229 5.29696C16.8518 5.84479 17.0443 6.77104 17.4284 8.62433L18.0847 11.791C18.6245 14.3972 18.894 15.7003 18.1074 16.5584C17.3199 17.4166 15.8543 17.4166 12.9239 17.4166H8.07642C5.14517 17.4166 3.68042 17.4166 2.89292 16.5584C2.10542 15.7003 2.37667 14.3972 2.91567 11.791L3.57192 8.62433C3.95692 6.77184 4.14855 5.84479 4.87742 5.29696C5.4033 4.90192 6.0928 4.79267 7.21892 4.76179ZM8.53142 3.95825C8.53142 3.48584 8.73884 3.03277 9.10806 2.69872C9.47727 2.36467 9.97803 2.177 10.5002 2.177C11.0223 2.177 11.5231 2.36467 11.8923 2.69872C12.2615 3.03277 12.4689 3.48584 12.4689 3.95825V4.74992H8.53142V3.95825Z" fill="#ED8047"/>
</svg>
